# xmcd
#
# Track frame offsets:
#	150
#	9046
#	20487
#	30086
#	42783
#	55620
#	65336
#	74106
#	85556
#	96990
#	107123
#	118586
#	132189
#	144157
#	153747
#	165303
#	175325
#	185615
#	196302
#	205768
#	218124
#	229964
#	239754
#	250483
#	260533
#	271289
#	282713
#	292019
#
# Disc length: 4038 seconds
#
# Revision: 0
# Processed by: cddbd v1.5.2PL0 Copyright (c) Steve Scherf et al.
# Submitted via: audiograbber 1.83.01
#
DISCID=990fc41c
DTITLE=Don't mess with me Baby Cause the Trouble  with me is you - Don't mess w
DTITLE=ith me Baby
DYEAR=2018
DGENRE=Rock'n Roll
TTITLE0=Jackson Bull Moose - Watch my Signals
TTITLE1=Pejoe Morris - She Walked right in
TTITLE2=Brown Rufus - Keep a Knockin'
TTITLE3=Little Irvin - Who's Lovin' you
TTITLE4=Starkes Doc - Women and Cadillacs
TTITLE5=Chambers Cliff - Don't Talk back
TTITLE6=Ellison Larry and The Mark VI - Young Girls
TTITLE7=Brooks Lonnie - Mr. Hot Shot
TTITLE8=John Little Willie - Leave my Kitten alone
TTITLE9=Perry King - Come back Baby
TTITLE10=Allen Jesse - Take it Easy
TTITLE11=Dupree Jack - Stumbling Block
TTITLE12=Green Rudy - Hurry Hurry
TTITLE13=John Little Willie - Look what you've done to me
TTITLE14=Higgins Chuck - Betwix and Between
TTITLE15=McHouston Big Red - I'm Tired
TTITLE16=Hall Fox - My Baby left me
TTITLE17=Clifton Paul - Sweet Pea
TTITLE18=Walker Troy - I'm getting Hip
TTITLE19=Tucker Alonzo - What's Wrong
TTITLE20=Guydon Chester - You gotta help me Some
TTITLE21=Bennett Roland - Tore Up
TTITLE22=Gabriel and his Trumpet - Don't Stay out all >Night
TTITLE23=Fishback Sonny - You ain't goin' Nowhere
TTITLE24=Spade Tony - What's Gwyne on
TTITLE25=Harris Willard - Straighten Up Baby
TTITLE26=Houston Joe - I Woke up this Moning
TTITLE27=Knight Baker - Bring my Cadillac back
EXTD=
EXTT0=
EXTT1=
EXTT2=
EXTT3=
EXTT4=
EXTT5=
EXTT6=
EXTT7=
EXTT8=
EXTT9=
EXTT10=
EXTT11=
EXTT12=
EXTT13=
EXTT14=
EXTT15=
EXTT16=
EXTT17=
EXTT18=
EXTT19=
EXTT20=
EXTT21=
EXTT22=
EXTT23=
EXTT24=
EXTT25=
EXTT26=
EXTT27=
PLAYORDER=
